<?xml version="1.0" encoding="UTF-8" standalone="no"?>
<!-- Created with Inkscape (http://www.inkscape.org/) -->

<svg
   xmlns:dc="http://purl.org/dc/elements/1.1/"
   xmlns:cc="http://creativecommons.org/ns#"
   xmlns:rdf="http://www.w3.org/1999/02/22-rdf-syntax-ns#"
   xmlns:svg="http://www.w3.org/2000/svg"
   xmlns="http://www.w3.org/2000/svg"
   xmlns:sodipodi="http://sodipodi.sourceforge.net/DTD/sodipodi-0.dtd"
   xmlns:inkscape="http://www.inkscape.org/namespaces/inkscape"
   width="157.34937mm"
   height="25.136986mm"
   viewBox="0 0 557.53712 89.068058"
   id="svg2"
   version="1.1"
   inkscape:version="0.91 r13725"
   sodipodi:docname="TUC-Logo-ETIT-nachCD.svg">
  <defs
     id="defs4">
    <marker
       inkscape:stockid="Arrow1Mstart"
       orient="auto"
       refY="0"
       refX="0"
       id="Arrow1Mstart"
       style="overflow:visible"
       inkscape:isstock="true">
      <path
         id="path4216"
         d="M 0,0 5,-5 -12.5,0 5,5 0,0 Z"
         style="fill:#000000;fill-opacity:1;fill-rule:evenodd;stroke:#000000;stroke-width:1pt;stroke-opacity:1"
         transform="matrix(0.4,0,0,0.4,4,0)"
         inkscape:connector-curvature="0" />
    </marker>
  </defs>
  <sodipodi:namedview
     id="base"
     pagecolor="#ffffff"
     bordercolor="#666666"
     borderopacity="1.0"
     inkscape:pageopacity="0.0"
     inkscape:pageshadow="2"
     inkscape:zoom="4.8675991"
     inkscape:cx="217.86922"
     inkscape:cy="54.902054"
     inkscape:document-units="px"
     inkscape:current-layer="layer2"
     showgrid="true"
     showguides="true"
     inkscape:guide-bbox="true"
     fit-margin-top="0"
     fit-margin-left="0"
     fit-margin-right="0"
     fit-margin-bottom="0"
     inkscape:window-width="1280"
     inkscape:window-height="751"
     inkscape:window-x="0"
     inkscape:window-y="0"
     inkscape:window-maximized="1">
    <sodipodi:guide
       position="227.82808,89.13034"
       orientation="0,1"
       id="guide5290" />
    <inkscape:grid
       type="xygrid"
       id="grid5304"
       originx="-37.969002"
       originy="-75.871483" />
    <sodipodi:guide
       position="259.14605,73.637771"
       orientation="0,1"
       id="guide5306" />
  </sodipodi:namedview>
  <metadata
     id="metadata7">
    <rdf:RDF>
      <cc:Work
         rdf:about="">
        <dc:format>image/svg+xml</dc:format>
        <dc:type
           rdf:resource="http://purl.org/dc/dcmitype/StillImage" />
        <dc:title />
      </cc:Work>
    </rdf:RDF>
  </metadata>
  <g
     inkscape:groupmode="layer"
     id="layer2"
     inkscape:label="Logo green"
     style="display:inline"
     sodipodi:insensitive="true">
    <g
       id="g4307"
       transform="matrix(1.2500265,0,0,1.250005,-37.804466,-38.109979)">
      <path
         style="fill:#003e2f"
         inkscape:connector-curvature="0"
         d="m 105.099,33.491 c -0.61,-1.223 -1.528,-2.132 -2.779,-2.688 -0.559,-0.253 -1.147,-0.368 -1.76,-0.292 -1.276,0.154 -2.248,0.835 -3.039,1.798 -0.358,0.439 -0.635,0.923 -0.805,1.479 l 8.504,0 c -0.047,-0.118 -0.077,-0.214 -0.121,-0.297"
         id="path4309" />
      <path
         style="fill:#003e2f"
         inkscape:connector-curvature="0"
         d="m 116.52,33.869 c 0.618,0 1.095,-0.473 1.092,-1.083 -0.003,-0.606 -0.484,-1.072 -1.104,-1.068 -0.601,0.003 -1.073,0.473 -1.076,1.068 -0.008,0.607 0.474,1.083 1.088,1.083"
         id="path4311" />
      <path
         style="fill:#003e2f"
         inkscape:connector-curvature="0"
         d="m 108.122,33.869 c 0.635,0.008 1.105,-0.445 1.108,-1.061 0.002,-0.613 -0.451,-1.083 -1.054,-1.09 -0.637,-0.008 -1.104,0.442 -1.106,1.065 -0.006,0.61 0.446,1.076 1.052,1.086"
         id="path4313" />
      <path
         style="fill:#003e2f"
         inkscape:connector-curvature="0"
         d="m 85.455,33.869 c 0.612,-0.003 1.068,-0.458 1.068,-1.073 0.004,-0.62 -0.464,-1.078 -1.089,-1.078 -0.611,0.003 -1.071,0.465 -1.075,1.072 -10e-4,0.621 0.467,1.079 1.096,1.079"
         id="path4315" />
      <path
         style="fill:#003e2f"
         inkscape:connector-curvature="0"
         d="m 93.82,33.869 c 0.621,0 1.095,-0.477 1.089,-1.088 -0.008,-0.601 -0.483,-1.063 -1.089,-1.063 -0.608,0 -1.073,0.458 -1.081,1.063 -0.011,0.615 0.459,1.088 1.081,1.088"
         id="path4317" />
      <path
         style="fill:#003e2f"
         inkscape:connector-curvature="0"
         d="m 124.227,44.372 c 0.026,-0.004 0.056,-0.018 0.099,-0.033 l 0,-2.509 c -0.135,0 -0.249,0.003 -0.367,0 -0.37,-0.027 -0.631,-0.286 -0.635,-0.651 -0.009,-0.825 -0.009,-1.647 0,-2.469 0.005,-0.359 0.258,-0.611 0.614,-0.638 0.126,-0.006 0.251,0 0.379,0 l 0,-2.075 -6.759,0 0,-1.38 -33.209,0 0,1.398 -6.514,0 0,2.026 c 0.646,0.102 0.801,0.288 0.801,0.925 l 0,1.875 c 0,0.748 -0.082,0.86 -0.792,1.045 l 0,2.476 c 0.536,0.056 0.78,0.262 0.788,0.697 0.013,0.804 0.013,1.606 0,2.41 -0.005,0.4 -0.246,0.637 -0.638,0.686 -0.056,0.007 -0.11,0.022 -0.176,0.039 l 0,1.231 0,1.229 c 0.67,0.117 0.818,0.296 0.818,0.944 l 0,1.873 c 0,0.75 -0.085,0.865 -0.818,1.054 l 0,2.282 c 0,0.058 0.011,0.114 0.015,0.169 0.622,0.081 0.803,0.288 0.803,0.917 0.001,0.636 0,1.27 0,1.905 0,0.736 -0.099,0.865 -0.794,1.045 l 0,2.056 6.516,0 0,2.095 33.221,0 0,-2.116 6.735,0 0,-2.064 c -0.07,-0.003 -0.121,-0.006 -0.169,-0.009 -0.596,-0.019 -0.822,-0.247 -0.822,-0.835 0,-0.667 0.028,-1.332 -0.009,-1.995 -0.038,-0.729 0.257,-1.031 0.946,-0.98 0.018,0 0.03,-0.014 0.064,-0.034 l 0,-2.453 c -0.172,-0.018 -0.331,-0.024 -0.484,-0.056 -0.318,-0.074 -0.518,-0.309 -0.518,-0.632 -0.003,-0.834 -0.006,-1.664 0,-2.498 0.004,-0.323 0.239,-0.582 0.563,-0.625 0.144,-0.017 0.289,-0.024 0.433,-0.038 l 0,-2.489 c -0.074,-0.008 -0.136,-0.01 -0.191,-0.015 -0.608,-0.016 -0.804,-0.22 -0.804,-0.836 l 0,-1.967 c 0,-0.799 0.115,-0.924 0.904,-0.98 m -15.011,-5.51 c 0.007,-0.461 0.354,-0.786 0.823,-0.79 0.763,-0.006 1.525,-0.003 2.289,-0.003 0.744,0 1.487,0 2.225,0.003 0.526,0 0.858,0.329 0.86,0.849 0.003,0.684 0.003,1.364 0,2.048 0,0.507 -0.34,0.872 -0.847,0.875 -1.514,0.012 -3.03,0.012 -4.543,0 -0.466,-0.003 -0.801,-0.349 -0.808,-0.813 -0.011,-0.722 -0.011,-1.448 10e-4,-2.169 m -14.339,0.08 c 0.002,-0.606 0.265,-0.87 0.866,-0.873 l 5.233,0 5.206,0 c 0.617,0.003 0.886,0.269 0.888,0.89 0.001,0.652 0.001,1.309 -0.002,1.96 0,0.625 -0.31,0.928 -0.935,0.928 -3.447,0.004 -6.896,0.004 -10.349,0 -0.614,0 -0.903,-0.289 -0.907,-0.915 -0.005,-0.661 -0.004,-1.327 0,-1.99 m 0,6.264 c 0.006,-0.561 0.28,-0.83 0.849,-0.83 l 5.265,0 5.171,0 c 0.637,0 0.905,0.269 0.907,0.903 10e-4,0.655 10e-4,1.31 0,1.967 -0.002,0.594 -0.322,0.909 -0.916,0.909 l -10.382,0 c -0.597,0 -0.888,-0.291 -0.894,-0.897 -0.005,-0.682 -0.005,-1.365 0,-2.052 m 11.256,9.251 -5.199,0 -5.199,0 c -0.542,0 -0.848,-0.286 -0.856,-0.833 -0.01,-0.72 -0.008,-1.445 0,-2.169 0.008,-0.47 0.285,-0.758 0.758,-0.769 0.663,-0.013 1.327,-0.006 1.99,-0.006 l 8.44,0 c 0.75,0 1.002,0.249 1.002,0.989 0,0.616 10e-4,1.23 0,1.843 -0.002,0.649 -0.296,0.945 -0.936,0.945 m 0.936,3.412 c 10e-4,0.664 10e-4,1.325 0,1.992 -0.002,0.61 -0.325,0.93 -0.939,0.93 -3.444,0.003 -6.892,0.003 -10.338,0 -0.599,0 -0.905,-0.295 -0.913,-0.884 -0.007,-0.704 -0.008,-1.41 0,-2.111 C 94.887,57.274 95.174,57 95.703,57 c 1.754,-0.003 3.507,0 5.259,0 l 5.229,0 c 0.588,0 0.876,0.283 0.878,0.869 M 80.78,38.796 c 0.005,-0.445 0.253,-0.714 0.687,-0.72 0.722,-0.01 1.447,-0.014 2.171,0 0.455,0.006 0.72,0.298 0.721,0.764 0.004,0.743 0.004,1.487 0,2.227 -10e-4,0.462 -0.26,0.753 -0.721,0.766 -0.724,0.023 -1.447,0.023 -2.167,0.004 -0.449,-0.013 -0.684,-0.277 -0.691,-0.724 -0.004,-0.387 0,-0.772 0,-1.158 0,-0.386 -0.004,-0.771 0,-1.159 m 0,12.624 c 0.005,-0.435 0.235,-0.709 0.659,-0.723 0.744,-0.017 1.487,-0.017 2.226,0.004 0.43,0.01 0.691,0.309 0.694,0.733 0.004,0.759 0.004,1.524 0,2.288 -0.003,0.439 -0.278,0.726 -0.721,0.733 -0.724,0.014 -1.447,0.011 -2.167,0 -0.435,-0.007 -0.686,-0.277 -0.691,-0.718 -0.004,-0.386 0,-0.775 0,-1.16 0,-0.386 -0.004,-0.771 0,-1.157 m 2.732,9.371 c -0.603,0.007 -1.207,0.003 -1.811,0 -0.127,0 -0.258,-0.012 -0.383,-0.04 -0.342,-0.074 -0.528,-0.302 -0.535,-0.649 -0.009,-0.405 -0.003,-0.813 -0.003,-1.219 0,-0.386 -0.004,-0.772 0,-1.157 0.007,-0.452 0.268,-0.719 0.721,-0.726 0.696,-0.005 1.389,-0.003 2.082,0 0.485,0.007 0.775,0.298 0.776,0.782 0.004,0.712 0.004,1.427 0,2.138 0,0.576 -0.266,0.859 -0.847,0.871 m 0.847,-13.378 c -0.007,0.417 -0.257,0.715 -0.668,0.726 -0.764,0.021 -1.526,0.021 -2.286,0 -0.379,-0.011 -0.618,-0.288 -0.621,-0.662 -0.008,-0.805 -0.008,-1.607 -0.001,-2.408 0.002,-0.406 0.253,-0.676 0.663,-0.687 0.733,-0.014 1.466,-0.014 2.198,0 0.442,0.011 0.708,0.302 0.715,0.744 0.005,0.386 0,0.773 0,1.158 0,0.379 0.008,0.753 0,1.129 m 2.154,-8.43 c 0.003,-0.591 0.325,-0.911 0.919,-0.914 l 2.2,0 c 0.732,0 1.466,0 2.198,0.003 0.565,0 0.899,0.335 0.902,0.905 0.007,0.653 0.009,1.308 0,1.959 -0.004,0.562 -0.348,0.911 -0.905,0.911 -1.456,0.009 -2.912,0.009 -4.369,0 -0.615,0 -0.945,-0.345 -0.949,-0.964 -0.001,-0.635 -0.001,-1.264 0.004,-1.9 m 5.286,9.172 c -0.723,0.005 -1.444,0 -2.168,0 -0.731,0 -1.466,0.005 -2.201,0 -0.571,-0.007 -0.914,-0.352 -0.917,-0.928 -0.005,-0.656 -0.005,-1.307 0,-1.961 0.003,-0.551 0.335,-0.887 0.887,-0.89 l 4.427,0 c 0.563,0.003 0.902,0.339 0.905,0.908 0.007,0.642 0.007,1.287 0,1.929 -0.003,0.606 -0.336,0.939 -0.933,0.942 m 0.933,3.439 c 0.007,0.653 0.007,1.31 0,1.961 -0.004,0.571 -0.345,0.902 -0.902,0.902 -0.743,0.004 -1.486,0 -2.229,0 -0.733,0 -1.466,0.004 -2.199,0 -0.532,0 -0.886,-0.356 -0.889,-0.893 -0.005,-0.66 -0.005,-1.324 0,-1.986 0.003,-0.537 0.329,-0.892 0.859,-0.892 1.492,-0.01 2.99,-0.01 4.484,0 0.545,0 0.873,0.355 0.876,0.908 m -6.219,6.294 C 86.516,57.345 86.856,57 87.401,57 c 0.743,-0.003 1.485,0 2.227,0 0.747,0 1.487,-0.003 2.23,0 0.513,0 0.866,0.34 0.872,0.848 0.013,0.685 0.013,1.368 0,2.052 -0.006,0.54 -0.359,0.886 -0.9,0.891 -1.468,0.003 -2.934,0.003 -4.4,0 -0.563,-0.005 -0.914,-0.372 -0.917,-0.94 -0.005,-0.657 -0.005,-1.309 0,-1.963 m 28.541,5.521 c -0.105,0.017 -0.217,0.009 -0.322,0.009 -9.174,0.004 -18.342,0.004 -27.509,0 -0.11,0 -0.221,0.008 -0.327,-0.009 -0.316,-0.049 -0.391,-0.148 -0.368,-0.506 l 28.882,0 c 0.028,0.351 -0.04,0.453 -0.356,0.506 m 0.359,-3.512 c 0,0.517 -0.35,0.889 -0.867,0.889 -1.497,0.012 -2.991,0.012 -4.486,0 -0.499,0 -0.842,-0.351 -0.849,-0.844 -0.007,-0.702 -0.007,-1.407 0,-2.111 0.007,-0.498 0.35,-0.827 0.854,-0.831 0.761,-0.003 1.522,0 2.287,0 0.729,0 1.464,-0.003 2.197,0 0.532,0 0.864,0.336 0.864,0.876 0.003,0.673 0.003,1.347 0,2.021 m 0.005,-6.227 c -0.009,0.462 -0.37,0.785 -0.835,0.787 -0.762,0.004 -1.525,0 -2.285,0 -0.743,0 -1.485,0.004 -2.229,0 -0.486,0 -0.837,-0.311 -0.852,-0.798 -0.016,-0.723 -0.014,-1.447 0,-2.169 0.013,-0.455 0.337,-0.793 0.793,-0.796 1.544,-0.014 3.087,-0.014 4.633,0 0.439,0.003 0.77,0.337 0.774,0.779 0.021,0.733 0.021,1.463 0.001,2.197 m 0.006,-6.38 c -0.008,0.519 -0.361,0.858 -0.887,0.865 -0.745,0.005 -1.488,0 -2.23,0 -0.722,0 -1.443,0.005 -2.17,0 -0.585,-0.003 -0.919,-0.325 -0.926,-0.918 -0.007,-0.661 -0.007,-1.325 0,-1.989 0.011,-0.541 0.344,-0.869 0.88,-0.869 1.494,-0.007 2.99,-0.007 4.484,0 0.506,0 0.841,0.323 0.849,0.83 0.014,0.693 0.014,1.387 0,2.081 m 5.738,11.606 c 0,0.369 0.002,0.735 0,1.102 -0.002,0.473 -0.209,0.753 -0.673,0.774 -0.74,0.033 -1.487,0.033 -2.227,-0.003 -0.451,-0.021 -0.684,-0.315 -0.688,-0.774 -0.011,-0.734 -0.011,-1.466 0,-2.199 0.004,-0.522 0.291,-0.792 0.824,-0.796 0.663,-0.003 1.327,-0.003 1.986,0 0.505,0.004 0.772,0.267 0.776,0.768 0.004,0.378 0.002,0.754 0.002,1.128 m 0,-6.319 c 0,0.385 0.007,0.77 0,1.155 -0.006,0.453 -0.27,0.72 -0.721,0.725 -0.705,0.009 -1.407,0.009 -2.112,0 -0.474,-0.005 -0.75,-0.286 -0.754,-0.766 -0.011,-0.743 -0.011,-1.483 0.002,-2.229 0.002,-0.477 0.264,-0.754 0.751,-0.768 0.703,-0.018 1.406,-0.018 2.107,0 0.492,0.014 0.727,0.285 0.727,0.782 0.002,0.368 0,0.732 0,1.101 m 0,-6.309 c 0,0.377 0.002,0.753 0,1.127 -0.004,0.467 -0.244,0.744 -0.694,0.753 -0.724,0.014 -1.449,0.019 -2.17,0 -0.442,-0.013 -0.717,-0.293 -0.721,-0.742 -0.014,-0.761 -0.018,-1.525 0,-2.287 0.007,-0.456 0.294,-0.733 0.754,-0.74 0.705,-0.011 1.406,-0.011 2.112,0 0.468,0.007 0.715,0.28 0.719,0.76 0.002,0.378 0,0.754 0,1.129 m 0,-5.18 c -0.006,0.476 -0.25,0.742 -0.73,0.753 -0.699,0.015 -1.404,0.019 -2.107,-0.004 -0.5,-0.013 -0.747,-0.293 -0.751,-0.802 -0.005,-0.723 -0.005,-1.444 0,-2.167 0.004,-0.517 0.271,-0.788 0.785,-0.796 0.682,-0.006 1.368,-0.006 2.051,0 0.489,0.008 0.747,0.264 0.753,0.757 0.004,0.377 0,0.751 0,1.131 -10e-4,0.373 0.006,0.749 -10e-4,1.128"
         id="path4319" />
      <path
         style="fill:#003e2f"
         inkscape:connector-curvature="0"
         d="m 78.376,101.051 -0.242,-0.513 c -0.055,-0.108 -0.177,-0.177 -0.34,-0.094 -0.229,0.106 -0.743,0.256 -1.107,0.256 -1.339,0 -2.299,-1.066 -2.299,-3.61 0,-2.473 0.811,-3.529 2.325,-3.529 0.419,0 0.73,0.109 1.041,0.258 0.162,0.083 0.299,0.026 0.366,-0.107 l 0.216,-0.419 c 0.081,-0.15 0.026,-0.313 -0.108,-0.392 -0.474,-0.285 -1.027,-0.353 -1.555,-0.353 -2.069,0 -3.503,1.677 -3.503,4.527 0,2.977 1.259,4.667 3.422,4.667 0.825,0 1.31,-0.191 1.663,-0.365 0.107,-0.054 0.188,-0.177 0.121,-0.326 m 7.371,0.353 0,-8.521 c 0,-0.161 -0.135,-0.269 -0.284,-0.269 l -0.513,0 c -0.149,0 -0.285,0.107 -0.285,0.269 l 0,3.502 -3.421,0 0,-3.502 c 0,-0.161 -0.136,-0.269 -0.284,-0.269 l -0.515,0 c -0.148,0 -0.282,0.107 -0.282,0.269 l 0,8.521 c 0,0.146 0.134,0.271 0.282,0.271 l 0.515,0 c 0.148,0 0.284,-0.124 0.284,-0.271 l 0,-4.044 3.421,0 0,4.044 c 0,0.146 0.136,0.271 0.285,0.271 l 0.513,0 c 0.149,0 0.284,-0.124 0.284,-0.271 m 6.995,0 0,-0.486 c 0,-0.163 -0.137,-0.284 -0.301,-0.284 l -3.284,0 0,-3.259 3.029,0 c 0.164,0 0.285,-0.122 0.285,-0.3 l 0,-0.416 c 0,-0.15 -0.121,-0.273 -0.285,-0.273 l -3.029,0 0,-2.758 3.3,0 c 0.176,0 0.285,-0.135 0.285,-0.296 l 0,-0.448 c 0,-0.161 -0.137,-0.269 -0.285,-0.269 l -4.109,0 c -0.151,0 -0.285,0.107 -0.285,0.269 l 0,8.521 c 0,0.146 0.134,0.271 0.285,0.271 l 4.109,0 c 0.148,-0.001 0.285,-0.125 0.285,-0.272 m 9.682,0.04 -0.676,-8.571 c -0.014,-0.177 -0.137,-0.258 -0.298,-0.258 l -1.014,0 c -0.135,0 -0.256,0.095 -0.285,0.216 l -1.471,5.626 c -0.122,0.445 -0.162,1.027 -0.203,1.526 -0.056,-0.499 -0.097,-1.096 -0.205,-1.514 L 96.8,92.831 c -0.028,-0.108 -0.136,-0.216 -0.272,-0.216 l -1.042,0 c -0.16,0 -0.296,0.107 -0.308,0.258 l -0.691,8.531 c -0.012,0.146 0.081,0.271 0.217,0.271 l 0.675,0 c 0.137,0 0.217,-0.096 0.231,-0.245 l 0.391,-6.286 c 0.026,-0.338 0.026,-1.393 0.026,-1.824 0.082,0.458 0.136,1.229 0.3,1.824 l 1.445,5.326 c 0.055,0.191 0.123,0.272 0.285,0.272 l 0.796,0 c 0.165,0 0.231,-0.081 0.286,-0.272 l 1.447,-5.326 c 0.147,-0.554 0.228,-1.445 0.282,-1.824 0,0.458 0.028,1.513 0.043,1.838 l 0.351,6.287 c 0.014,0.135 0.094,0.23 0.258,0.23 l 0.715,0 c 0.15,0 0.203,-0.096 0.189,-0.231 m 8.035,-0.027 0,-8.544 c 0,-0.15 -0.135,-0.258 -0.283,-0.258 l -0.475,0 c -0.146,0 -0.283,0.107 -0.283,0.258 l 0,6.015 c 0,0.663 0.081,1.395 0.163,1.989 -0.163,-0.461 -0.313,-1.068 -0.582,-1.677 l -2.811,-6.397 c -0.055,-0.12 -0.166,-0.188 -0.314,-0.188 l -1.026,0 c -0.161,0 -0.284,0.081 -0.284,0.258 l 0,8.544 c 0,0.134 0.135,0.258 0.284,0.258 l 0.473,0 c 0.151,0 0.285,-0.124 0.285,-0.258 l 0,-6.124 c 0,-0.515 -0.092,-1.419 -0.164,-2.001 0.164,0.582 0.341,1.203 0.598,1.768 l 2.866,6.398 c 0.067,0.136 0.19,0.217 0.325,0.217 l 0.945,0 c 0.148,0 0.283,-0.124 0.283,-0.258 m 4.59,-0.027 0,-0.297 c 0,-0.15 -0.108,-0.285 -0.27,-0.285 l -0.675,0 0,-7.325 0.675,0 c 0.161,0 0.27,-0.138 0.27,-0.287 l 0,-0.296 c 0,-0.15 -0.108,-0.285 -0.27,-0.285 l -2.432,0 c -0.165,0 -0.272,0.135 -0.272,0.285 l 0,0.295 c 0,0.149 0.107,0.287 0.272,0.287 l 0.675,0 0,7.325 -0.675,0 c -0.165,0 -0.272,0.135 -0.272,0.285 l 0,0.297 c 0,0.149 0.107,0.285 0.272,0.285 l 2.432,0 c 0.161,10e-4 0.27,-0.135 0.27,-0.284 m 6.979,-8.058 0,-0.448 c 0,-0.161 -0.121,-0.269 -0.27,-0.269 l -5.205,0 c -0.163,0 -0.296,0.107 -0.296,0.269 l 0,0.448 c 0,0.161 0.133,0.27 0.296,0.27 l 2.054,0 0,7.803 c 0,0.146 0.135,0.271 0.285,0.271 l 0.526,0 c 0.149,0 0.285,-0.124 0.285,-0.271 l 0,-7.803 2.055,0 c 0.149,0 0.27,-0.109 0.27,-0.27 m 6.468,8.072 0,-0.476 c 0,-0.147 -0.119,-0.268 -0.269,-0.268 l -3.476,0 c -0.271,0 -0.539,0.053 -0.704,0.081 0.165,-0.123 0.354,-0.326 0.5,-0.598 l 3.651,-6.326 c 0.081,-0.137 0.149,-0.3 0.149,-0.444 l 0,-0.49 c 0,-0.161 -0.121,-0.269 -0.271,-0.269 l -4.569,0 c -0.162,0 -0.297,0.107 -0.297,0.269 l 0,0.448 c 0,0.15 0.135,0.27 0.297,0.27 l 3.109,0 c 0.313,0 0.579,-0.026 0.783,-0.083 -0.161,0.138 -0.365,0.342 -0.5,0.571 l -3.689,6.38 c -0.058,0.095 -0.123,0.23 -0.123,0.38 l 0,0.555 c 0,0.146 0.123,0.271 0.271,0.271 l 4.868,0 c 0.151,0 0.27,-0.124 0.27,-0.271"
         id="path4321" />
      <path
         style="fill:#003e2f"
         inkscape:connector-curvature="0"
         d="m 36.016,77.106 0,-0.447 c 0,-0.162 -0.122,-0.271 -0.27,-0.271 l -5.206,0 c -0.162,0 -0.297,0.108 -0.297,0.271 l 0,0.447 c 0,0.163 0.135,0.271 0.297,0.271 l 2.056,0 0,7.8 c 0,0.15 0.135,0.273 0.284,0.273 l 0.528,0 c 0.148,0 0.283,-0.123 0.283,-0.273 l 0,-7.8 2.055,0 c 0.148,0 0.27,-0.107 0.27,-0.271 m 6.029,8.071 0,-0.484 c 0,-0.162 -0.135,-0.283 -0.297,-0.283 l -3.286,0 0,-3.261 3.03,0 c 0.161,0 0.282,-0.12 0.282,-0.297 l 0,-0.419 c 0,-0.147 -0.121,-0.27 -0.282,-0.27 l -3.03,0 0,-2.758 3.299,0 c 0.176,0 0.284,-0.136 0.284,-0.299 l 0,-0.447 c 0,-0.162 -0.135,-0.271 -0.284,-0.271 l -4.11,0 c -0.149,0 -0.283,0.108 -0.283,0.271 l 0,8.518 c 0,0.15 0.134,0.273 0.283,0.273 l 4.11,0 c 0.149,0 0.284,-0.123 0.284,-0.273 m 6.643,-0.351 -0.243,-0.512 c -0.055,-0.107 -0.177,-0.178 -0.339,-0.098 -0.229,0.109 -0.743,0.26 -1.11,0.26 -1.335,0 -2.297,-1.067 -2.297,-3.609 0,-2.478 0.812,-3.531 2.325,-3.531 0.421,0 0.731,0.109 1.042,0.256 0.163,0.082 0.298,0.029 0.365,-0.106 l 0.217,-0.42 c 0.081,-0.149 0.026,-0.312 -0.11,-0.393 -0.472,-0.284 -1.026,-0.351 -1.553,-0.351 -2.071,0 -3.504,1.677 -3.504,4.529 0,2.975 1.259,4.663 3.422,4.663 0.825,0 1.311,-0.188 1.663,-0.362 0.107,-0.055 0.188,-0.176 0.122,-0.326 m 7.37,0.351 0,-8.518 c 0,-0.162 -0.136,-0.271 -0.284,-0.271 l -0.514,0 c -0.149,0 -0.284,0.108 -0.284,0.271 l 0,3.504 -3.42,0 0,-3.504 c 0,-0.162 -0.136,-0.271 -0.284,-0.271 l -0.515,0 c -0.148,0 -0.284,0.108 -0.284,0.271 l 0,8.518 c 0,0.15 0.136,0.273 0.284,0.273 l 0.515,0 c 0.148,0 0.284,-0.123 0.284,-0.273 l 0,-4.042 3.42,0 0,4.042 c 0,0.15 0.135,0.273 0.284,0.273 l 0.514,0 c 0.147,0 0.284,-0.123 0.284,-0.273 m 8.211,0.015 0,-8.546 c 0,-0.149 -0.136,-0.258 -0.284,-0.258 l -0.475,0 c -0.148,0 -0.284,0.108 -0.284,0.258 l 0,6.019 c 0,0.66 0.082,1.391 0.162,1.986 -0.162,-0.46 -0.31,-1.068 -0.579,-1.676 l -2.815,-6.396 c -0.053,-0.122 -0.161,-0.191 -0.31,-0.191 l -1.026,0 c -0.164,0 -0.285,0.083 -0.285,0.258 l 0,8.546 c 0,0.135 0.134,0.258 0.285,0.258 l 0.471,0 c 0.149,0 0.284,-0.123 0.284,-0.258 l 0,-6.126 c 0,-0.513 -0.094,-1.419 -0.162,-2.001 0.162,0.582 0.339,1.205 0.595,1.771 l 2.866,6.396 c 0.068,0.136 0.19,0.218 0.325,0.218 l 0.948,0 c 0.147,0 0.284,-0.123 0.284,-0.258 m 4.589,-0.026 0,-0.298 c 0,-0.151 -0.11,-0.284 -0.271,-0.284 l -0.676,0 0,-7.328 0.676,0 c 0.161,0 0.271,-0.135 0.271,-0.284 l 0,-0.299 c 0,-0.148 -0.11,-0.284 -0.271,-0.284 l -2.433,0 c -0.163,0 -0.271,0.136 -0.271,0.284 l 0,0.299 c 0,0.149 0.108,0.284 0.271,0.284 l 0.674,0 0,7.328 -0.674,0 c -0.163,0 -0.271,0.133 -0.271,0.284 l 0,0.298 c 0,0.149 0.108,0.284 0.271,0.284 l 2.433,0 c 0.162,0 0.271,-0.135 0.271,-0.284 m 6.502,-2.245 c 0,-1.448 -0.703,-2.029 -1.703,-2.462 l -0.743,-0.325 c -0.757,-0.323 -1.393,-0.646 -1.393,-1.443 0,-0.84 0.459,-1.343 1.568,-1.343 0.554,0 0.946,0.124 1.392,0.259 0.109,0.026 0.27,-0.067 0.311,-0.218 l 0.11,-0.432 c 0.039,-0.148 -0.042,-0.311 -0.162,-0.351 -0.407,-0.135 -1.097,-0.284 -1.651,-0.284 -1.758,0 -2.731,1.025 -2.731,2.407 0,1.514 1.026,2.002 2.014,2.419 l 0.635,0.271 c 0.717,0.312 1.163,0.704 1.163,1.541 0,0.907 -0.553,1.517 -1.635,1.517 -0.676,0 -1.327,-0.219 -1.812,-0.394 -0.189,-0.066 -0.312,0.041 -0.352,0.19 l -0.135,0.525 c -0.04,0.15 0.014,0.271 0.189,0.339 0.514,0.189 1.353,0.377 2.096,0.377 1.988,0.001 2.839,-1.228 2.839,-2.593 m 6.726,1.905 -0.245,-0.512 c -0.054,-0.107 -0.175,-0.178 -0.337,-0.098 -0.23,0.109 -0.743,0.26 -1.108,0.26 -1.34,0 -2.3,-1.067 -2.3,-3.609 0,-2.478 0.812,-3.531 2.325,-3.531 0.42,0 0.732,0.109 1.042,0.256 0.162,0.082 0.298,0.029 0.366,-0.106 l 0.216,-0.42 c 0.081,-0.149 0.028,-0.312 -0.108,-0.393 -0.474,-0.284 -1.027,-0.351 -1.556,-0.351 -2.068,0 -3.502,1.677 -3.502,4.529 0,2.975 1.259,4.663 3.422,4.663 0.824,0 1.312,-0.188 1.662,-0.362 0.11,-0.055 0.191,-0.176 0.123,-0.326 m 7.372,0.351 0,-8.518 c 0,-0.162 -0.134,-0.271 -0.284,-0.271 l -0.514,0 c -0.149,0 -0.284,0.108 -0.284,0.271 l 0,3.504 -3.421,0 0,-3.504 c 0,-0.162 -0.135,-0.271 -0.285,-0.271 l -0.512,0 c -0.15,0 -0.285,0.108 -0.285,0.271 l 0,8.518 c 0,0.15 0.135,0.273 0.285,0.273 l 0.512,0 c 0.15,0 0.285,-0.123 0.285,-0.273 l 0,-4.042 3.421,0 0,4.042 c 0,0.15 0.135,0.273 0.284,0.273 l 0.514,0 c 0.149,0 0.284,-0.123 0.284,-0.273 m 6.993,0 0,-0.484 c 0,-0.162 -0.138,-0.283 -0.299,-0.283 l -3.285,0 0,-3.261 3.029,0 c 0.161,0 0.283,-0.12 0.283,-0.297 l 0,-0.419 c 0,-0.147 -0.122,-0.27 -0.283,-0.27 l -3.029,0 0,-2.758 3.297,0 c 0.177,0 0.287,-0.136 0.287,-0.299 l 0,-0.447 c 0,-0.162 -0.138,-0.271 -0.287,-0.271 l -4.109,0 c -0.149,0 -0.283,0.108 -0.283,0.271 l 0,8.518 c 0,0.15 0.134,0.273 0.283,0.273 l 4.109,0 c 0.149,0 0.287,-0.123 0.287,-0.273 m 11.207,-2.446 0,-6.072 c 0,-0.162 -0.135,-0.271 -0.284,-0.271 l -0.515,0 c -0.146,0 -0.283,0.108 -0.283,0.271 l 0,5.991 c 0,1.607 -0.756,1.934 -1.757,1.934 -1.299,0 -1.703,-0.798 -1.703,-2.096 l 0,-5.829 c 0,-0.162 -0.137,-0.271 -0.286,-0.271 l -0.514,0 c -0.149,0 -0.282,0.108 -0.282,0.271 l 0,6.072 c 0,1.704 0.796,2.783 2.785,2.783 1.879,0.001 2.839,-0.999 2.839,-2.783 m 8.199,2.461 0,-8.546 c 0,-0.149 -0.136,-0.258 -0.284,-0.258 l -0.471,0 c -0.15,0 -0.286,0.108 -0.286,0.258 l 0,6.019 c 0,0.66 0.08,1.391 0.163,1.986 -0.163,-0.46 -0.313,-1.068 -0.582,-1.676 l -2.813,-6.396 c -0.054,-0.122 -0.163,-0.191 -0.313,-0.191 l -1.028,0 c -0.161,0 -0.28,0.083 -0.28,0.258 l 0,8.546 c 0,0.135 0.133,0.258 0.28,0.258 l 0.474,0 c 0.151,0 0.285,-0.123 0.285,-0.258 l 0,-6.126 c 0,-0.513 -0.093,-1.419 -0.161,-2.001 0.161,0.582 0.336,1.205 0.595,1.771 l 2.865,6.396 c 0.067,0.136 0.191,0.218 0.325,0.218 l 0.946,0 c 0.15,0 0.285,-0.123 0.285,-0.258 m 4.591,-0.026 0,-0.298 c 0,-0.151 -0.109,-0.284 -0.272,-0.284 l -0.674,0 0,-7.328 0.674,0 c 0.163,0 0.272,-0.135 0.272,-0.284 l 0,-0.299 c 0,-0.148 -0.109,-0.284 -0.272,-0.284 l -2.432,0 c -0.163,0 -0.272,0.136 -0.272,0.284 l 0,0.299 c 0,0.149 0.109,0.284 0.272,0.284 l 0.675,0 0,7.328 -0.675,0 c -0.163,0 -0.272,0.133 -0.272,0.284 l 0,0.298 c 0,0.149 0.109,0.284 0.272,0.284 l 2.432,0 c 0.163,0 0.272,-0.135 0.272,-0.284 m 7.609,-8.507 c 0.042,-0.147 -0.064,-0.271 -0.216,-0.271 l -0.581,0 c -0.147,0 -0.281,0.108 -0.323,0.271 l -1.759,6.547 c -0.095,0.335 -0.218,1.025 -0.297,1.486 -0.067,-0.476 -0.188,-1.151 -0.285,-1.486 l -1.756,-6.547 c -0.054,-0.188 -0.177,-0.271 -0.354,-0.271 l -0.688,0 c -0.147,0 -0.257,0.123 -0.203,0.284 l 2.529,8.504 c 0.041,0.15 0.216,0.273 0.364,0.273 l 0.756,0 c 0.151,0 0.326,-0.123 0.366,-0.273 l 2.447,-8.517 z m 6.234,8.518 0,-0.484 c 0,-0.162 -0.134,-0.283 -0.297,-0.283 l -3.285,0 0,-3.261 3.029,0 c 0.162,0 0.284,-0.12 0.284,-0.297 l 0,-0.419 c 0,-0.147 -0.122,-0.27 -0.284,-0.27 l -3.029,0 0,-2.758 3.298,0 c 0.178,0 0.284,-0.136 0.284,-0.299 l 0,-0.447 c 0,-0.162 -0.134,-0.271 -0.284,-0.271 l -4.109,0 c -0.149,0 -0.282,0.108 -0.282,0.271 l 0,8.518 c 0,0.15 0.133,0.273 0.282,0.273 l 4.109,0 c 0.15,0 0.284,-0.123 0.284,-0.273 m 7.594,-0.053 c -0.542,-1.514 -0.944,-2.54 -1.067,-2.798 -0.296,-0.636 -0.838,-1.338 -1.649,-1.475 1.217,-0.08 2.162,-0.921 2.162,-2.259 0,-0.85 -0.471,-2.204 -2.689,-2.204 l -2.285,0 c -0.149,0 -0.284,0.108 -0.284,0.271 l 0,8.518 c 0,0.15 0.135,0.273 0.284,0.273 l 0.528,0 c 0.146,0 0.283,-0.123 0.283,-0.273 l 0,-3.866 0.716,0 c 1.001,0 1.419,0.597 1.731,1.149 0.392,0.691 0.648,1.65 1.028,2.826 0.039,0.122 0.136,0.164 0.242,0.164 l 0.812,0 c 0.201,0 0.256,-0.135 0.188,-0.326 m -1.677,-6.368 c 0,1.001 -0.661,1.583 -1.729,1.583 l -1.312,0 0,-2.962 1.459,0 c 1.043,0 1.582,0.581 1.582,1.379 m 8.234,4.165 c 0,-1.448 -0.704,-2.029 -1.703,-2.462 l -0.745,-0.325 c -0.756,-0.323 -1.392,-0.646 -1.392,-1.443 0,-0.84 0.458,-1.343 1.565,-1.343 0.556,0 0.95,0.124 1.396,0.259 0.108,0.026 0.27,-0.067 0.309,-0.218 l 0.109,-0.432 c 0.04,-0.148 -0.04,-0.311 -0.161,-0.351 -0.406,-0.135 -1.097,-0.284 -1.652,-0.284 -1.757,0 -2.729,1.025 -2.729,2.407 0,1.514 1.027,2.002 2.015,2.419 l 0.635,0.271 c 0.717,0.312 1.164,0.704 1.164,1.541 0,0.907 -0.555,1.517 -1.637,1.517 -0.676,0 -1.325,-0.219 -1.811,-0.394 -0.19,-0.066 -0.312,0.041 -0.353,0.19 l -0.134,0.525 c -0.04,0.15 0.012,0.271 0.188,0.339 0.514,0.189 1.354,0.377 2.097,0.377 1.987,0.001 2.839,-1.228 2.839,-2.593 m 4.122,2.245 0,-0.298 c 0,-0.151 -0.109,-0.284 -0.271,-0.284 l -0.675,0 0,-7.328 0.675,0 c 0.161,0 0.271,-0.135 0.271,-0.284 l 0,-0.299 c 0,-0.148 -0.109,-0.284 -0.271,-0.284 l -2.434,0 c -0.162,0 -0.271,0.136 -0.271,0.284 l 0,0.299 c 0,0.149 0.108,0.284 0.271,0.284 l 0.676,0 0,7.328 -0.676,0 c -0.162,0 -0.271,0.133 -0.271,0.284 l 0,0.298 c 0,0.149 0.108,0.284 0.271,0.284 l 2.434,0 c 0.162,0 0.271,-0.135 0.271,-0.284 m 6.979,-8.06 0,-0.447 c 0,-0.162 -0.121,-0.271 -0.268,-0.271 l -5.207,0 c -0.161,0 -0.297,0.108 -0.297,0.271 l 0,0.447 c 0,0.163 0.136,0.271 0.297,0.271 l 2.055,0 0,7.8 c 0,0.15 0.135,0.273 0.285,0.273 l 0.526,0 c 0.147,0 0.283,-0.123 0.283,-0.273 l 0,-7.8 2.058,0 c 0.147,0 0.268,-0.107 0.268,-0.271 m 6.538,8.046 -2.651,-8.493 c -0.056,-0.188 -0.215,-0.271 -0.364,-0.271 l -0.851,0 c -0.15,0 -0.312,0.083 -0.367,0.271 l -2.486,8.493 c -0.056,0.163 0.041,0.298 0.188,0.298 l 0.663,0 c 0.149,0 0.283,-0.123 0.323,-0.273 l 0.61,-2.256 3.027,0 0.648,2.256 c 0.042,0.15 0.217,0.273 0.366,0.273 l 0.702,0 c 0.15,0 0.245,-0.135 0.192,-0.298 m -2.165,-3.15 -2.528,0 1.042,-3.922 c 0.094,-0.351 0.161,-0.732 0.202,-1.108 0.056,0.364 0.109,0.771 0.204,1.108 l 1.08,3.922 z m -1.756,-6.735 c 0,-0.363 -0.286,-0.636 -0.665,-0.636 -0.322,0 -0.62,0.272 -0.62,0.636 0,0.38 0.298,0.663 0.635,0.663 0.379,0 0.65,-0.284 0.65,-0.663 m 2.365,0 c 0,-0.363 -0.284,-0.636 -0.662,-0.636 -0.326,0 -0.622,0.272 -0.622,0.636 0,0.38 0.296,0.663 0.634,0.663 0.381,0 0.65,-0.284 0.65,-0.663 m 7.375,1.839 0,-0.447 c 0,-0.162 -0.121,-0.271 -0.271,-0.271 l -5.205,0 c -0.162,0 -0.297,0.108 -0.297,0.271 l 0,0.447 c 0,0.163 0.135,0.271 0.297,0.271 l 2.056,0 0,7.8 c 0,0.15 0.135,0.273 0.284,0.273 l 0.527,0 c 0.148,0 0.284,-0.123 0.284,-0.273 l 0,-7.8 2.054,0 c 0.15,0 0.271,-0.107 0.271,-0.271"
         id="path4323" />
    </g>
  </g>
  <g
     inkscape:groupmode="layer"
     id="layer3"
     inkscape:label="Fak. green"
     style="display:inline"
     sodipodi:insensitive="true">
    <path
       transform="translate(-37.969002,-887.42266)"
       inkscape:connector-curvature="0"
       id="path4384"
       d="m 253.45487,887.42269 0,89.068"
       style="display:inline;fill:none;fill-rule:evenodd;stroke:#003e2f;stroke-width:1;stroke-linecap:butt;stroke-linejoin:miter;stroke-miterlimit:4;stroke-dasharray:none;stroke-opacity:1" />
    <text
       transform="translate(-37.969002,-887.42266)"
       sodipodi:linespacing="125%"
       id="text4386"
       y="902.75275"
       x="289.77734"
       style="font-style:normal;font-variant:normal;font-weight:normal;font-stretch:condensed;font-size:17.5px;line-height:125%;font-family:'Roboto Condensed';-inkscape-font-specification:'Roboto Condensed, Condensed';text-align:start;letter-spacing:0px;word-spacing:0px;writing-mode:lr-tb;text-anchor:start;display:inline;fill:#003e2f;fill-opacity:1;stroke:none;stroke-width:1px;stroke-linecap:butt;stroke-linejoin:miter;stroke-opacity:1"
       xml:space="preserve"><tspan
         y="902.75275"
         x="289.77734"
         id="tspan4388"
         sodipodi:role="line">Fakultät für Elektro- und Informationstechnik</tspan></text>
    <text
       transform="translate(-37.969002,-887.42266)"
       xml:space="preserve"
       style="font-style:normal;font-variant:normal;font-weight:normal;font-stretch:condensed;font-size:15px;line-height:150%;font-family:'Roboto Condensed';-inkscape-font-specification:'Roboto Condensed, Condensed';text-align:start;letter-spacing:0px;word-spacing:0px;writing-mode:lr-tb;text-anchor:start;display:inline;fill:#003e2f;fill-opacity:1;stroke:none;stroke-width:1px;stroke-linecap:butt;stroke-linejoin:miter;stroke-opacity:1"
       x="289.94946"
       y="928.79681"
       id="text4390"
       sodipodi:linespacing="150%"><tspan
         y="928.79681"
         x="289.94946"
         id="tspan4392"
         sodipodi:role="line">Institut für Informationstechnik</tspan><tspan
         y="951.29681"
         x="289.94946"
         id="tspan4394"
         sodipodi:role="line">Professur Schaltkreis- und Systementwurf</tspan></text>
  </g>
</svg>
