<?xml version="1.0" encoding="UTF-8" standalone="no"?>
<!-- Created with Inkscape (http://www.inkscape.org/) -->

<svg
   xmlns:dc="http://purl.org/dc/elements/1.1/"
   xmlns:cc="http://creativecommons.org/ns#"
   xmlns:rdf="http://www.w3.org/1999/02/22-rdf-syntax-ns#"
   xmlns:svg="http://www.w3.org/2000/svg"
   xmlns="http://www.w3.org/2000/svg"
   xmlns:sodipodi="http://sodipodi.sourceforge.net/DTD/sodipodi-0.dtd"
   xmlns:inkscape="http://www.inkscape.org/namespaces/inkscape"
   width="157.34937mm"
   height="25.136986mm"
   viewBox="0 0 557.53712 89.068058"
   id="svg2"
   version="1.1"
   inkscape:version="0.91 r13725"
   sodipodi:docname="TUC-Logo-ETIT-nachCD_sw.svg">
  <defs
     id="defs4">
    <marker
       inkscape:stockid="Arrow1Mstart"
       orient="auto"
       refY="0"
       refX="0"
       id="Arrow1Mstart"
       style="overflow:visible"
       inkscape:isstock="true">
      <path
         id="path4216"
         d="M 0,0 5,-5 -12.5,0 5,5 0,0 Z"
         style="fill:#000000;fill-opacity:1;fill-rule:evenodd;stroke:#000000;stroke-width:1pt;stroke-opacity:1"
         transform="matrix(0.4,0,0,0.4,4,0)"
         inkscape:connector-curvature="0" />
    </marker>
  </defs>
  <sodipodi:namedview
     id="base"
     pagecolor="#ffffff"
     bordercolor="#666666"
     borderopacity="1.0"
     inkscape:pageopacity="0.0"
     inkscape:pageshadow="2"
     inkscape:zoom="4.8675991"
     inkscape:cx="217.86922"
     inkscape:cy="54.902054"
     inkscape:document-units="px"
     inkscape:current-layer="layer1"
     showgrid="true"
     showguides="true"
     inkscape:guide-bbox="true"
     fit-margin-top="0"
     fit-margin-left="0"
     fit-margin-right="0"
     fit-margin-bottom="0"
     inkscape:window-width="1280"
     inkscape:window-height="751"
     inkscape:window-x="0"
     inkscape:window-y="0"
     inkscape:window-maximized="1">
    <sodipodi:guide
       position="227.82808,89.13034"
       orientation="0,1"
       id="guide5290" />
    <inkscape:grid
       type="xygrid"
       id="grid5304"
       originx="-37.969002"
       originy="-75.871483" />
    <sodipodi:guide
       position="259.14605,73.637771"
       orientation="0,1"
       id="guide5306" />
  </sodipodi:namedview>
  <metadata
     id="metadata7">
    <rdf:RDF>
      <cc:Work
         rdf:about="">
        <dc:format>image/svg+xml</dc:format>
        <dc:type
           rdf:resource="http://purl.org/dc/dcmitype/StillImage" />
        <dc:title></dc:title>
      </cc:Work>
    </rdf:RDF>
  </metadata>
  <g
     inkscape:label="Ebene 1"
     inkscape:groupmode="layer"
     id="layer1"
     style="display:inline"
     transform="translate(-37.969002,-887.42266)"
     sodipodi:insensitive="true">
    <g
       id="surface9621"
       transform="matrix(1.2499999,0,0,1.25,0.16626979,849.31292)">
      <path
         id="path4158"
         d="m 105.09766,33.492188 c -0.60938,-1.222657 -1.52735,-2.132813 -2.77735,-2.6875 -0.55859,-0.253907 -1.14843,-0.371094 -1.76172,-0.292969 -1.273434,0.152343 -2.24609,0.835937 -3.039059,1.796875 -0.355469,0.441406 -0.632812,0.921875 -0.804687,1.480468 l 8.503906,0 c -0.0469,-0.117187 -0.0742,-0.214843 -0.12109,-0.296874"
         style="fill:#211e1e;fill-opacity:1;fill-rule:nonzero;stroke:none"
         inkscape:connector-curvature="0" />
      <path
         id="path4160"
         d="m 116.51953,33.867188 c 0.61719,0 1.09375,-0.472657 1.09375,-1.082032 -0.004,-0.605468 -0.48828,-1.070312 -1.10547,-1.066406 -0.60156,0.0039 -1.07422,0.472656 -1.07812,1.066406 -0.008,0.605469 0.47656,1.082032 1.08984,1.082032"
         style="fill:#211e1e;fill-opacity:1;fill-rule:nonzero;stroke:none"
         inkscape:connector-curvature="0" />
      <path
         id="path4162"
         d="m 108.12109,33.867188 c 0.63672,0.01172 1.10547,-0.441407 1.10938,-1.058594 0,-0.613282 -0.45313,-1.082032 -1.05469,-1.089844 -0.63672,-0.0078 -1.10156,0.441406 -1.10547,1.0625 -0.008,0.609375 0.44532,1.078125 1.05078,1.085938"
         style="fill:#211e1e;fill-opacity:1;fill-rule:nonzero;stroke:none"
         inkscape:connector-curvature="0" />
      <path
         id="path4164"
         d="m 85.453125,33.867188 c 0.613281,0 1.070313,-0.457032 1.070313,-1.070313 0.0039,-0.621094 -0.464844,-1.078125 -1.089844,-1.078125 -0.609375,0.0039 -1.070313,0.464844 -1.074219,1.070312 0,0.621094 0.464844,1.078126 1.09375,1.078126"
         style="fill:#211e1e;fill-opacity:1;fill-rule:nonzero;stroke:none"
         inkscape:connector-curvature="0" />
      <path
         id="path4166"
         d="m 93.820312,33.867188 c 0.621094,0 1.09375,-0.476563 1.089844,-1.085938 -0.0078,-0.601562 -0.484375,-1.0625 -1.089844,-1.0625 -0.609374,0 -1.074218,0.457031 -1.082031,1.0625 -0.01172,0.613281 0.460938,1.085938 1.082031,1.085938"
         style="fill:#211e1e;fill-opacity:1;fill-rule:nonzero;stroke:none"
         inkscape:connector-curvature="0" />
      <path
         id="path4168"
         d="m 121.16016,41.089844 c -0.004,0.472656 -0.25,0.738281 -0.72657,0.75 -0.70312,0.01563 -1.40625,0.01953 -2.10937,-0.0039 -0.5,-0.01172 -0.74609,-0.292969 -0.75,-0.800782 -0.008,-0.722656 -0.008,-1.445312 0,-2.167968 0.004,-0.515626 0.26953,-0.789063 0.78516,-0.796876 0.67968,-0.0039 1.36718,-0.0039 2.05078,0 0.48828,0.0078 0.74609,0.265626 0.75,0.757813 0.008,0.378906 0,0.75 0,1.132813 0,0.371093 0.008,0.746093 0,1.128906 m 0,5.179687 c 0,0.375 0.004,0.75 0,1.125 -0.004,0.46875 -0.24219,0.746094 -0.69141,0.753907 -0.72656,0.01172 -1.44922,0.01953 -2.17187,0 -0.44141,-0.01172 -0.71485,-0.292969 -0.71875,-0.742188 -0.0156,-0.761719 -0.0195,-1.523438 0,-2.289062 0.008,-0.453126 0.29296,-0.730469 0.7539,-0.738282 0.70313,-0.01172 1.40625,-0.01172 2.10938,0 0.46875,0.0078 0.71484,0.28125 0.71875,0.761719 0.004,0.375 0,0.753906 0,1.128906 m 0,6.308594 c 0,0.382813 0.008,0.769531 0,1.152344 -0.004,0.453125 -0.26953,0.722656 -0.71875,0.726562 -0.70703,0.0078 -1.40625,0.0078 -2.11328,0 -0.47266,-0.0039 -0.75,-0.285156 -0.75391,-0.765625 -0.0117,-0.742187 -0.0117,-1.484375 0.004,-2.230468 0,-0.476563 0.26171,-0.753907 0.75,-0.765626 0.70312,-0.01953 1.40625,-0.01953 2.10546,0 0.4961,0.01172 0.72657,0.285157 0.72657,0.78125 0.004,0.367188 0,0.730469 0,1.101563 m 0,6.316406 c 0,0.371094 0.004,0.738281 0,1.101563 0,0.476562 -0.20703,0.753906 -0.67188,0.777344 -0.73828,0.03125 -1.48437,0.03125 -2.22656,-0.0039 -0.44922,-0.02344 -0.68359,-0.316406 -0.6875,-0.773437 -0.0117,-0.734375 -0.0117,-1.46875 0,-2.199219 0.004,-0.523437 0.29297,-0.792969 0.82422,-0.796875 0.66406,-0.0039 1.32812,-0.0039 1.98828,0 0.50391,0.0039 0.76953,0.265625 0.77344,0.769531 0.004,0.375 0,0.753907 0,1.125 m -5.73438,-11.605469 c -0.008,0.519532 -0.36328,0.859376 -0.89062,0.867188 -0.74219,0.0039 -1.48438,0 -2.22657,0 -0.72265,0 -1.44531,0.0039 -2.17187,0 -0.58594,-0.0039 -0.91797,-0.328125 -0.92578,-0.917969 -0.008,-0.664062 -0.008,-1.328125 0,-1.992187 0.0117,-0.539063 0.34375,-0.867188 0.8789,-0.867188 1.4961,-0.0078 2.99219,-0.0078 4.48438,0 0.50781,0 0.84375,0.324219 0.85156,0.828125 0.0117,0.695313 0.0117,1.390625 0,2.082031 m -0.008,6.378907 c -0.008,0.464843 -0.37109,0.785156 -0.83594,0.789062 -0.76172,0.0039 -1.52344,0 -2.28515,0 -0.74219,0 -1.48438,0.0039 -2.22657,0 -0.48828,0 -0.83984,-0.3125 -0.85156,-0.796875 -0.0156,-0.722656 -0.0156,-1.449218 0,-2.171875 0.0117,-0.453125 0.33594,-0.792969 0.79297,-0.792969 1.54297,-0.01562 3.08594,-0.01562 4.63281,0 0.4375,0 0.76953,0.335938 0.77344,0.777344 0.0195,0.734375 0.0195,1.464844 0,2.195313 m -0.004,6.230469 c 0,0.515624 -0.35156,0.886718 -0.86718,0.886718 -1.4961,0.01172 -2.99219,0.01172 -4.48829,0 -0.5,0 -0.83984,-0.351562 -0.84765,-0.84375 -0.008,-0.703125 -0.008,-1.40625 0,-2.109375 0.008,-0.5 0.34765,-0.828125 0.85156,-0.832031 0.76172,-0.0039 1.52344,0 2.28906,0 0.73047,0 1.46485,-0.0039 2.19922,0 0.53125,0 0.86328,0.335938 0.86328,0.875 0.004,0.675781 0.004,1.347656 0,2.023438 m -0.35937,3.511718 c -0.10547,0.01563 -0.21875,0.0078 -0.32422,0.0078 -9.17188,0.0039 -18.339845,0.0039 -27.507814,0 -0.109375,0 -0.222656,0.0078 -0.328125,-0.0078 -0.316406,-0.05078 -0.390625,-0.148437 -0.367187,-0.507812 l 28.882816,0 c 0.0273,0.351562 -0.0391,0.453125 -0.35547,0.507812 M 86.511719,57.886719 C 86.515625,57.34375 86.855469,57 87.402344,57 c 0.742187,-0.0039 1.484375,0 2.226562,0 0.746094,0 1.484375,-0.0039 2.230469,0 0.511719,0 0.863281,0.339844 0.871094,0.847656 0.01172,0.683594 0.01172,1.367188 0,2.050782 -0.0078,0.542968 -0.359375,0.886718 -0.898438,0.890624 -1.46875,0.0039 -2.9375,0.0039 -4.402343,0 -0.5625,-0.0039 -0.914063,-0.371093 -0.917969,-0.9375 -0.0039,-0.65625 -0.0039,-1.308593 0,-1.964843 m 6.21875,-6.292969 c 0.0078,0.652344 0.0078,1.308594 0,1.960938 -0.0039,0.570312 -0.34375,0.902343 -0.898438,0.902343 -0.746093,0.0039 -1.488281,0 -2.230469,0 -0.734374,0 -1.464843,0.0039 -2.199218,0 -0.53125,0 -0.886719,-0.355469 -0.890625,-0.894531 -0.0039,-0.660156 -0.0039,-1.324219 0,-1.984375 0.0039,-0.539063 0.332031,-0.890625 0.859375,-0.890625 1.492187,-0.01172 2.992187,-0.01172 4.484375,0 0.546875,0 0.875,0.351562 0.875,0.90625 m -0.929688,-3.4375 c -0.726562,0.0039 -1.445312,0 -2.167969,0 -0.734374,0 -1.46875,0.0039 -2.203124,0 -0.570313,-0.0078 -0.914063,-0.351562 -0.917969,-0.929688 -0.0039,-0.65625 -0.0039,-1.308593 0,-1.960937 0.0039,-0.550781 0.335937,-0.886719 0.886719,-0.890625 l 4.429687,0 c 0.5625,0.0039 0.902344,0.339844 0.902344,0.910156 0.0078,0.640625 0.0078,1.285156 0,1.929688 0,0.605468 -0.335938,0.9375 -0.929688,0.941406 m -5.289062,-9.171875 c 0.0039,-0.59375 0.328125,-0.914063 0.921875,-0.914063 l 2.199218,0 c 0.730469,0 1.464844,0 2.199219,0 0.5625,0 0.898438,0.335938 0.898438,0.90625 0.0078,0.652344 0.01172,1.308594 0,1.960938 -0.0039,0.558594 -0.347657,0.910156 -0.902344,0.910156 -1.457031,0.0078 -2.914063,0.0078 -4.371094,0 -0.613281,0 -0.945312,-0.347656 -0.949219,-0.964844 0,-0.636718 0,-1.265624 0.0039,-1.898437 m -2.152344,8.429687 c -0.0078,0.414063 -0.257813,0.714844 -0.667969,0.726563 -0.765625,0.01953 -1.527344,0.01953 -2.285156,0 -0.378906,-0.01172 -0.621094,-0.289063 -0.621094,-0.664063 -0.0078,-0.804687 -0.0078,-1.605468 -0.0039,-2.40625 0.0039,-0.40625 0.253906,-0.675781 0.664062,-0.6875 0.734376,-0.01562 1.464844,-0.01562 2.199219,0 0.441407,0.01172 0.707031,0.300782 0.714844,0.742188 0.0039,0.386719 0,0.773438 0,1.160156 0,0.378906 0.0078,0.75 0,1.128906 m -0.847656,13.375 c -0.601563,0.0078 -1.207031,0.0039 -1.8125,0 -0.125,0 -0.257813,-0.01172 -0.382813,-0.03906 -0.339844,-0.07422 -0.527344,-0.300781 -0.535156,-0.648438 -0.0078,-0.40625 0,-0.8125 0,-1.21875 0,-0.386718 -0.0039,-0.773437 0,-1.15625 C 80.785156,57.273438 81.046875,57.007812 81.5,57 c 0.695312,-0.0039 1.390625,-0.0039 2.082031,0 0.484375,0.0078 0.777344,0.296875 0.777344,0.78125 0.0039,0.710938 0.0039,1.425781 0,2.136719 0,0.578125 -0.265625,0.859375 -0.847656,0.871093 M 80.78125,51.417969 c 0.0039,-0.433594 0.234375,-0.707031 0.65625,-0.722657 0.746094,-0.01562 1.488281,-0.01562 2.226562,0.0039 0.429688,0.01172 0.691407,0.3125 0.695313,0.734375 0.0039,0.757812 0.0039,1.523437 0,2.289062 -0.0039,0.4375 -0.277344,0.726563 -0.722656,0.730469 -0.722657,0.01563 -1.445313,0.01172 -2.164063,0 -0.4375,-0.0039 -0.6875,-0.273437 -0.691406,-0.714844 -0.0039,-0.386719 0,-0.777343 0,-1.160156 0,-0.386719 -0.0039,-0.773437 0,-1.160156 m 0,-12.621094 c 0.0039,-0.445313 0.25,-0.714844 0.6875,-0.722656 0.71875,-0.0078 1.445312,-0.01172 2.167969,0 0.457031,0.0078 0.722656,0.300781 0.722656,0.765625 0.0039,0.742187 0.0039,1.488281 0,2.226562 0,0.460938 -0.261719,0.753906 -0.722656,0.765625 -0.722657,0.02344 -1.445313,0.02344 -2.164063,0.0039 -0.449218,-0.01172 -0.6875,-0.277344 -0.691406,-0.722657 -0.0039,-0.386719 0,-0.773437 0,-1.160156 0,-0.382813 -0.0039,-0.769531 0,-1.15625 m 26.28906,19.070313 c 0,0.664062 0,1.328124 0,1.992187 -0.004,0.613281 -0.32812,0.929687 -0.9414,0.929687 -3.44532,0.0039 -6.890629,0.0039 -10.335941,0 -0.601563,0 -0.90625,-0.292968 -0.914063,-0.882812 -0.0078,-0.703125 -0.0078,-1.410156 0,-2.109375 C 94.886719,57.273438 95.175781,57 95.703125,57 c 1.753906,-0.0039 3.507813,0 5.257815,0 l 5.23047,0 c 0.58593,0 0.875,0.28125 0.8789,0.867188 m -0.9375,-3.410157 -10.398435,0 c -0.542969,0 -0.847656,-0.285156 -0.855469,-0.832031 -0.01172,-0.722656 -0.0078,-1.445312 0,-2.171875 0.0078,-0.46875 0.285156,-0.757813 0.757813,-0.765625 0.664062,-0.01563 1.328125,-0.0078 1.992187,-0.0078 l 8.437504,0 c 0.75,0 1.0039,0.25 1.0039,0.988281 0,0.617187 0,1.230469 0,1.84375 -0.004,0.648437 -0.29687,0.945312 -0.9375,0.945312 m -11.253904,-9.25 c 0.0039,-0.5625 0.277344,-0.832031 0.847656,-0.832031 l 10.433598,0 c 0.64062,0 0.90625,0.269531 0.91015,0.902344 0,0.65625 0,1.3125 0,1.96875 -0.004,0.59375 -0.32422,0.910156 -0.91797,0.910156 l -10.382809,0 c -0.59375,0 -0.886719,-0.292969 -0.890625,-0.898438 -0.0078,-0.683593 -0.0078,-1.363281 0,-2.050781 m 0,-6.265625 c 0,-0.605468 0.261719,-0.871094 0.863282,-0.871094 l 10.441402,0 c 0.61719,0 0.88282,0.269532 0.88672,0.886719 0,0.652344 0,1.3125 -0.004,1.960938 0,0.625 -0.3086,0.929687 -0.9336,0.929687 -3.44922,0.0039 -6.898435,0.0039 -10.347654,0 -0.613281,0 -0.902344,-0.289062 -0.90625,-0.914062 -0.0078,-0.664063 -0.0039,-1.328125 0,-1.992188 m 14.335934,-0.07813 c 0.008,-0.460937 0.35547,-0.789062 0.82422,-0.792969 0.76172,-0.0039 1.52344,0 2.28907,0 0.74218,0 1.48828,0 2.22656,0 0.52344,0 0.85547,0.332032 0.85937,0.851563 0.004,0.683594 0.004,1.363281 0,2.046875 0,0.507812 -0.33984,0.871094 -0.84765,0.875 -1.51172,0.01172 -3.03125,0.01172 -4.54297,0 -0.46485,-0.0039 -0.80078,-0.347656 -0.8086,-0.8125 -0.0117,-0.722656 -0.0117,-1.449219 0,-2.167969 m 15.01172,5.507813 c 0.0273,-0.0039 0.0547,-0.01563 0.0977,-0.03125 l 0,-2.511719 c -0.13281,0 -0.25,0.0039 -0.36719,0 -0.36719,-0.02344 -0.6289,-0.285156 -0.63281,-0.648437 -0.0117,-0.824219 -0.0117,-1.648438 0,-2.46875 0.004,-0.359376 0.25781,-0.613282 0.61328,-0.640626 0.125,-0.0039 0.25,0 0.37891,0 l 0,-2.074218 -6.75782,0 0,-1.378906 -33.210934,0 0,1.398437 -6.511718,0 0,2.023437 c 0.644531,0.105469 0.800781,0.289063 0.800781,0.925782 l 0,1.875 c 0,0.75 -0.08203,0.859375 -0.792969,1.046875 l 0,2.476562 c 0.535156,0.05469 0.78125,0.261719 0.789062,0.695313 0.01172,0.804687 0.01172,1.605468 0,2.410156 -0.0039,0.398438 -0.246093,0.636719 -0.640624,0.6875 -0.05469,0.0039 -0.109376,0.01953 -0.175782,0.03906 l 0,2.457032 c 0.671875,0.117187 0.820313,0.296875 0.820313,0.945312 l 0,1.875 c 0,0.75 -0.08594,0.863282 -0.820313,1.050782 l 0,2.285156 c 0,0.05469 0.01172,0.113281 0.01563,0.167968 0.625,0.08203 0.804688,0.289063 0.804688,0.917969 0,0.632813 0,1.269531 0,1.902344 0,0.738281 -0.101563,0.867187 -0.792969,1.046875 l 0,2.054688 6.515625,0 0,2.09375 33.21876,0 0,-2.113282 6.73437,0 0,-2.066406 c -0.0703,0 -0.12109,-0.0039 -0.16797,-0.0078 -0.59375,-0.01953 -0.82031,-0.246094 -0.82031,-0.835938 0,-0.664062 0.0273,-1.332031 -0.0117,-1.992188 -0.0352,-0.730468 0.25781,-1.03125 0.94922,-0.980468 0.0156,0 0.0312,-0.01563 0.0625,-0.03516 l 0,-2.453126 c -0.17189,-0.01953 -0.33204,-0.02344 -0.48439,-0.05469 -0.3164,-0.07422 -0.51561,-0.308594 -0.51561,-0.632813 -0.004,-0.835937 -0.008,-1.664062 0,-2.5 0.004,-0.320312 0.23828,-0.582031 0.5625,-0.625 0.14061,-0.01562 0.28906,-0.02344 0.42968,-0.03516 l 0,-2.492187 c -0.0742,-0.0078 -0.13282,-0.0078 -0.1875,-0.01172 -0.60938,-0.01563 -0.80468,-0.222656 -0.80468,-0.835938 l 0,-1.96875 c 0,-0.796874 0.11328,-0.921874 0.90233,-0.980468"
         style="fill:#211e1e;fill-opacity:1;fill-rule:nonzero;stroke:none"
         inkscape:connector-curvature="0" />
      <path
         id="path4170"
         d="m 128.49609,101.40625 0,-0.47656 c 0,-0.14844 -0.11718,-0.26953 -0.26953,-0.26953 l -3.47265,0 c -0.27344,0 -0.53907,0.0547 -0.70703,0.082 0.16796,-0.1211 0.35546,-0.32422 0.5,-0.59766 l 3.65234,-6.328124 c 0.082,-0.136718 0.14844,-0.296875 0.14844,-0.441406 l 0,-0.492188 c 0,-0.160156 -0.1211,-0.265624 -0.26954,-0.265624 l -4.57031,0 c -0.16015,0 -0.29687,0.105468 -0.29687,0.265624 l 0,0.449219 c 0,0.148438 0.13672,0.269531 0.29687,0.269531 l 3.10938,0 c 0.3125,0 0.57812,-0.02734 0.78515,-0.08203 -0.16406,0.136719 -0.36718,0.339844 -0.5,0.570313 l -3.6914,6.378905 c -0.0586,0.0937 -0.1211,0.23047 -0.1211,0.37891 l 0,0.55859 c 0,0.14453 0.1211,0.26953 0.26954,0.26953 l 4.86718,0 c 0.15235,0 0.26953,-0.125 0.26953,-0.26953 m -6.46875,-8.074218 0,-0.449219 c 0,-0.160156 -0.12109,-0.265624 -0.26953,-0.265624 l -5.20312,0 c -0.16406,0 -0.29688,0.105468 -0.29688,0.265624 l 0,0.449219 c 0,0.160157 0.13282,0.269531 0.29688,0.269531 l 2.05078,0 0,7.804687 c 0,0.14453 0.13672,0.26953 0.28516,0.26953 l 0.52734,0 c 0.14844,0 0.28516,-0.125 0.28516,-0.26953 l 0,-7.804687 2.05468,0 c 0.14844,0 0.26953,-0.109374 0.26953,-0.269531 m -6.97656,8.058598 0,-0.29688 c 0,-0.15234 -0.10937,-0.28516 -0.27344,-0.28516 l -0.67187,0 0,-7.32812 0.67187,0 c 0.16407,0 0.27344,-0.136719 0.27344,-0.285157 l 0,-0.296874 c 0,-0.148438 -0.10937,-0.28125 -0.27344,-0.28125 l -2.42968,0 c -0.16407,0 -0.27344,0.132812 -0.27344,0.28125 l 0,0.296874 c 0,0.148438 0.10937,0.285157 0.27344,0.285157 l 0.67578,0 0,7.32812 -0.67578,0 c -0.16407,0 -0.27344,0.13282 -0.27344,0.28516 l 0,0.29688 c 0,0.14843 0.10937,0.28515 0.27344,0.28515 l 2.42968,0 c 0.16407,0 0.27344,-0.13672 0.27344,-0.28515 m -4.58984,0.0273 0,-8.542969 c 0,-0.152344 -0.13672,-0.257812 -0.28516,-0.257812 l -0.47656,0 c -0.14453,0 -0.28125,0.105468 -0.28125,0.257812 l 0,6.011719 c 0,0.664062 0.082,1.39453 0.16406,1.99219 -0.16406,-0.46094 -0.3125,-1.070315 -0.58203,-1.67969 l -2.8125,-6.398438 c -0.0547,-0.117187 -0.16406,-0.183593 -0.3125,-0.183593 l -1.02734,0 c -0.16016,0 -0.28516,0.07812 -0.28516,0.257812 l 0,8.542969 c 0,0.13281 0.13672,0.25781 0.28516,0.25781 l 0.47265,0 c 0.15235,0 0.28516,-0.125 0.28516,-0.25781 l 0,-6.125 c 0,-0.515625 -0.0898,-1.417969 -0.16406,-2 0.16406,0.582031 0.33984,1.203125 0.59765,1.765625 l 2.86719,6.398435 c 0.0664,0.13672 0.19141,0.21875 0.32422,0.21875 l 0.94531,0 c 0.14844,0 0.28516,-0.125 0.28516,-0.25781 m -8.03516,0.0273 L 101.75,92.875 c -0.0156,-0.179688 -0.14062,-0.257812 -0.30078,-0.257812 l -1.01172,0 c -0.13672,0 -0.25781,0.09375 -0.28516,0.214843 l -1.472652,5.625 c -0.121094,0.445313 -0.160157,1.027344 -0.203126,1.527344 -0.05469,-0.5 -0.09766,-1.097656 -0.203124,-1.515625 l -1.472657,-5.636719 c -0.02734,-0.109375 -0.136719,-0.214843 -0.273437,-0.214843 l -1.042969,0 c -0.160156,0 -0.292969,0.105468 -0.304687,0.257812 l -0.691407,8.53125 c -0.01172,0.14453 0.07813,0.26953 0.214844,0.26953 l 0.675781,0 c 0.136719,0 0.21875,-0.0977 0.230469,-0.24609 L 96,95.144531 c 0.02734,-0.339843 0.02734,-1.394531 0.02734,-1.824219 0.08203,0.457032 0.136718,1.230469 0.300781,1.824219 l 1.445313,5.324219 c 0.05469,0.19141 0.121093,0.27344 0.285156,0.27344 l 0.792968,0 c 0.167969,0 0.234376,-0.082 0.289063,-0.27344 l 1.445319,-5.324219 c 0.14844,-0.554687 0.22656,-1.445312 0.28125,-1.824219 0,0.457032 0.0273,1.511719 0.043,1.835938 l 0.35156,6.28906 c 0.0117,0.13282 0.0937,0.23047 0.25781,0.23047 l 0.71485,0 c 0.15234,0 0.20312,-0.0977 0.1914,-0.23047 m -9.683596,-0.0391 0,-0.48828 c 0,-0.16406 -0.136719,-0.28516 -0.300782,-0.28516 l -3.285156,0 0,-3.25781 3.03125,0 c 0.164062,0 0.285156,-0.121094 0.285156,-0.300781 l 0,-0.414063 c 0,-0.152344 -0.121094,-0.273437 -0.285156,-0.273437 l -3.03125,0 0,-2.757813 3.300781,0 c 0.175781,0 0.285157,-0.136718 0.285157,-0.296875 l 0,-0.449219 c 0,-0.160156 -0.136719,-0.265624 -0.285157,-0.265624 l -4.109375,0 c -0.152344,0 -0.285156,0.105468 -0.285156,0.265624 l 0,8.523438 c 0,0.14453 0.132812,0.26953 0.285156,0.26953 l 4.109375,0 c 0.148438,0 0.285157,-0.125 0.285157,-0.26953 m -6.996094,0 0,-8.523438 c 0,-0.160156 -0.132813,-0.265624 -0.28125,-0.265624 l -0.515625,0 c -0.148438,0 -0.285157,0.105468 -0.285157,0.265624 l 0,3.503907 -3.421874,0 0,-3.503907 c 0,-0.160156 -0.132813,-0.265624 -0.28125,-0.265624 l -0.515626,0 c -0.148437,0 -0.28125,0.105468 -0.28125,0.265624 l 0,8.523438 c 0,0.14453 0.132813,0.26953 0.28125,0.26953 l 0.515626,0 c 0.148437,0 0.28125,-0.125 0.28125,-0.26953 l 0,-4.046875 3.421874,0 0,4.046875 c 0,0.14453 0.136719,0.26953 0.285157,0.26953 l 0.515625,0 c 0.148437,0 0.28125,-0.125 0.28125,-0.26953 m -7.37112,-0.35543 -0.242188,-0.51172 c -0.05469,-0.10937 -0.175781,-0.17968 -0.339843,-0.0937 -0.226563,0.10547 -0.742188,0.25391 -1.105469,0.25391 -1.339844,0 -2.300781,-1.066408 -2.300781,-3.609376 0,-2.472656 0.8125,-3.53125 2.328125,-3.53125 0.417968,0 0.726562,0.113281 1.039062,0.257812 0.164063,0.08594 0.300782,0.02734 0.367188,-0.105468 l 0.214844,-0.417969 c 0.08203,-0.152344 0.02734,-0.316407 -0.109376,-0.394531 -0.472656,-0.28125 -1.027343,-0.351563 -1.554687,-0.351563 -2.066406,0 -3.5,1.675781 -3.5,4.527344 0,2.976561 1.257813,4.667971 3.421875,4.667971 0.824219,0 1.308594,-0.19141 1.660156,-0.36328 0.109375,-0.0547 0.1875,-0.17969 0.121094,-0.32813"
         style="fill:#211e1e;fill-opacity:1;fill-rule:nonzero;stroke:none"
         inkscape:connector-curvature="0" />
      <path
         id="path4172"
         d="m 171.90234,77.105469 0,-0.445313 c 0,-0.164062 -0.12109,-0.273437 -0.27343,-0.273437 l -5.20704,0 c -0.16015,0 -0.29296,0.109375 -0.29296,0.273437 l 0,0.445313 c 0,0.164062 0.13281,0.273437 0.29296,0.273437 l 2.0586,0 0,7.796875 c 0,0.152344 0.13281,0.273438 0.28125,0.273438 l 0.53125,0 c 0.14453,0 0.28125,-0.121094 0.28125,-0.273438 l 0,-7.796875 2.05469,0 c 0.15234,0 0.27343,-0.109375 0.27343,-0.273437 m -7.375,-1.839844 c 0,-0.363281 -0.28515,-0.636719 -0.66406,-0.636719 -0.32422,0 -0.62109,0.273438 -0.62109,0.636719 0,0.378906 0.29687,0.664063 0.63281,0.664063 0.37891,0 0.65234,-0.285157 0.65234,-0.664063 m -2.36718,0 c 0,-0.363281 -0.28516,-0.636719 -0.66407,-0.636719 -0.32422,0 -0.62109,0.273438 -0.62109,0.636719 0,0.378906 0.29687,0.664063 0.63281,0.664063 0.37891,0 0.65235,-0.285157 0.65235,-0.664063 m 1.75781,6.738281 -2.53125,0 1.04297,-3.921875 c 0.0937,-0.351562 0.16015,-0.734375 0.20312,-1.109375 0.0547,0.363282 0.10938,0.769532 0.20313,1.109375 z m 2.16406,3.148438 -2.65234,-8.492188 c -0.0547,-0.1875 -0.21485,-0.273437 -0.36328,-0.273437 l -0.85157,0 c -0.15234,0 -0.3125,0.08594 -0.36718,0.273437 l -2.48438,8.492188 c -0.0586,0.164062 0.0391,0.296875 0.1875,0.296875 l 0.66016,0 c 0.15234,0 0.28515,-0.121094 0.32422,-0.273438 l 0.60937,-2.253906 3.02734,0 0.65235,2.253906 c 0.0391,0.152344 0.21484,0.273438 0.36328,0.273438 l 0.70312,0 c 0.14844,0 0.24219,-0.132813 0.19141,-0.296875 m -6.53906,-8.046875 0,-0.445313 c 0,-0.164062 -0.1211,-0.273437 -0.26563,-0.273437 l -5.20703,0 c -0.16406,0 -0.30078,0.109375 -0.30078,0.273437 l 0,0.445313 c 0,0.164062 0.13672,0.273437 0.30078,0.273437 l 2.05469,0 0,7.796875 c 0,0.152344 0.13281,0.273438 0.28516,0.273438 l 0.52343,0 c 0.14844,0 0.28516,-0.121094 0.28516,-0.273438 l 0,-7.796875 2.05859,0 c 0.14453,0 0.26563,-0.109375 0.26563,-0.273437 m -6.98047,8.0625 0,-0.300781 c 0,-0.152344 -0.10547,-0.28125 -0.26953,-0.28125 l -0.67188,0 0,-7.332032 0.67188,0 c 0.16406,0 0.26953,-0.132812 0.26953,-0.28125 l 0,-0.300781 c 0,-0.148437 -0.10547,-0.285156 -0.26953,-0.285156 l -2.4336,0 c -0.16015,0 -0.26953,0.136719 -0.26953,0.285156 l 0,0.300781 c 0,0.148438 0.10938,0.28125 0.26953,0.28125 l 0.67579,0 0,7.332032 -0.67579,0 c -0.16015,0 -0.26953,0.128906 -0.26953,0.28125 l 0,0.300781 c 0,0.148437 0.10938,0.28125 0.26953,0.28125 l 2.4336,0 c 0.16406,0 0.26953,-0.132813 0.26953,-0.28125 m -4.12109,-2.246094 c 0,-1.449219 -0.70313,-2.03125 -1.70313,-2.460937 l -0.74219,-0.328126 c -0.75781,-0.324218 -1.39453,-0.644531 -1.39453,-1.441406 0,-0.839844 0.45703,-1.34375 1.56641,-1.34375 0.55469,0 0.94922,0.125 1.39453,0.257813 0.10937,0.02734 0.26953,-0.06641 0.30859,-0.21875 l 0.10938,-0.429688 c 0.0391,-0.148437 -0.0391,-0.3125 -0.16016,-0.351562 -0.40625,-0.132813 -1.09765,-0.28125 -1.65234,-0.28125 -1.75781,0 -2.73047,1.023437 -2.73047,2.40625 0,1.511719 1.02734,2 2.01562,2.417969 l 0.63672,0.269531 c 0.71485,0.3125 1.16407,0.707031 1.16407,1.542969 0,0.90625 -0.55469,1.515624 -1.63672,1.515624 -0.67969,0 -1.32813,-0.21875 -1.8125,-0.394531 -0.19141,-0.06641 -0.3125,0.04297 -0.35157,0.191407 l -0.13281,0.523437 c -0.043,0.152344 0.0117,0.273437 0.1875,0.339844 0.51172,0.191406 1.35156,0.378906 2.09375,0.378906 1.98828,0 2.83985,-1.230469 2.83985,-2.59375 m -8.23438,-4.167969 c 0,1.003906 -0.66016,1.585938 -1.73047,1.585938 l -1.30859,0 0,-2.960938 1.45703,0 c 1.04297,0 1.58203,0.578125 1.58203,1.375 m 1.67578,6.371094 c -0.53906,-1.515625 -0.9414,-2.539062 -1.0664,-2.796875 -0.29688,-0.636719 -0.83594,-1.339844 -1.64844,-1.476563 1.21484,-0.08203 2.16406,-0.921874 2.16406,-2.257812 0,-0.851562 -0.47266,-2.207031 -2.69141,-2.207031 l -2.28515,0 c -0.14844,0 -0.28516,0.109375 -0.28516,0.273437 l 0,8.515625 c 0,0.152344 0.13672,0.273438 0.28516,0.273438 l 0.52734,0 c 0.14844,0 0.28516,-0.121094 0.28516,-0.273438 l 0,-3.867187 0.71484,0 c 1,0 1.41797,0.597656 1.73047,1.152344 0.39063,0.691406 0.64844,1.648437 1.02734,2.824218 0.0391,0.125 0.13672,0.164063 0.24219,0.164063 l 0.8125,0 c 0.20313,0 0.25781,-0.132813 0.1875,-0.324219 m -7.58984,0.05078 0,-0.484375 c 0,-0.160156 -0.13672,-0.28125 -0.29688,-0.28125 l -3.28515,0 0,-3.261718 3.02734,0 c 0.16406,0 0.28516,-0.121094 0.28516,-0.296876 l 0,-0.417968 c 0,-0.148438 -0.1211,-0.269532 -0.28516,-0.269532 l -3.02734,0 0,-2.757812 3.29687,0 c 0.17578,0 0.28516,-0.136719 0.28516,-0.300781 l 0,-0.445313 c 0,-0.164062 -0.13672,-0.273437 -0.28516,-0.273437 l -4.10937,0 c -0.14844,0 -0.28125,0.109375 -0.28125,0.273437 l 0,8.515625 c 0,0.152344 0.13281,0.273438 0.28125,0.273438 l 4.10937,0 c 0.14844,0 0.28516,-0.121094 0.28516,-0.273438 m -6.23828,-8.515625 c 0.043,-0.148437 -0.0625,-0.273437 -0.21485,-0.273437 l -0.58203,0 c -0.14453,0 -0.28125,0.109375 -0.32031,0.273437 l -1.76172,6.546875 c -0.0937,0.335938 -0.21484,1.023438 -0.29687,1.484375 -0.0664,-0.476562 -0.1875,-1.148437 -0.28516,-1.484375 l -1.75391,-6.546875 c -0.0547,-0.1875 -0.17578,-0.273437 -0.35156,-0.273437 l -0.6914,0 c -0.14454,0 -0.25391,0.125 -0.20313,0.285156 l 2.53125,8.503906 c 0.0391,0.152344 0.21484,0.273438 0.36328,0.273438 l 0.75781,0 c 0.14844,0 0.32422,-0.121094 0.36329,-0.273438 z m -7.60547,8.507813 0,-0.300781 c 0,-0.152344 -0.10938,-0.28125 -0.27344,-0.28125 l -0.67187,0 0,-7.332032 0.67187,0 c 0.16406,0 0.27344,-0.132812 0.27344,-0.28125 l 0,-0.300781 c 0,-0.148437 -0.10938,-0.285156 -0.27344,-0.285156 l -2.42969,0 c -0.16406,0 -0.27343,0.136719 -0.27343,0.285156 l 0,0.300781 c 0,0.148438 0.10937,0.28125 0.27343,0.28125 l 0.67188,0 0,7.332032 -0.67188,0 c -0.16406,0 -0.27343,0.128906 -0.27343,0.28125 l 0,0.300781 c 0,0.148437 0.10937,0.28125 0.27343,0.28125 l 2.42969,0 c 0.16406,0 0.27344,-0.132813 0.27344,-0.28125 m -4.59375,0.02344 0,-8.546875 c 0,-0.148437 -0.13281,-0.257812 -0.28125,-0.257812 l -0.47266,0 c -0.14843,0 -0.28515,0.109375 -0.28515,0.257812 l 0,6.019531 c 0,0.660157 0.0781,1.390626 0.16406,1.988282 -0.16406,-0.460938 -0.3125,-1.070313 -0.58203,-1.675782 l -2.8125,-6.394531 c -0.0547,-0.125 -0.16406,-0.195312 -0.3125,-0.195312 l -1.02735,0 c -0.16406,0 -0.28125,0.08594 -0.28125,0.257812 l 0,8.546875 c 0,0.136719 0.13282,0.257813 0.28125,0.257813 l 0.47266,0 c 0.15234,0 0.28516,-0.121094 0.28516,-0.257813 l 0,-6.125 c 0,-0.511718 -0.0937,-1.417968 -0.16407,-2 0.16407,0.582032 0.33594,1.203125 0.59766,1.769532 l 2.86328,6.394531 c 0.0703,0.136719 0.19141,0.21875 0.32813,0.21875 l 0.94531,0 c 0.14844,0 0.28125,-0.121094 0.28125,-0.257813 m -8.19531,-2.460937 0,-6.070313 c 0,-0.164062 -0.13672,-0.273437 -0.28516,-0.273437 l -0.51562,0 c -0.14844,0 -0.28125,0.109375 -0.28125,0.273437 l 0,5.992188 c 0,1.605468 -0.75782,1.933594 -1.75782,1.933594 -1.30078,0 -1.70312,-0.800782 -1.70312,-2.097657 l 0,-5.828125 c 0,-0.164062 -0.13672,-0.273437 -0.28516,-0.273437 l -0.51562,0 c -0.14844,0 -0.28125,0.109375 -0.28125,0.273437 l 0,6.070313 c 0,1.703125 0.79687,2.785156 2.78515,2.785156 1.87891,0 2.83985,-1 2.83985,-2.785156 m -11.207035,2.445312 0,-0.484375 c 0,-0.160156 -0.140625,-0.28125 -0.300781,-0.28125 l -3.285156,0 0,-3.261718 3.027343,0 c 0.164063,0 0.285157,-0.121094 0.285157,-0.296876 l 0,-0.417968 c 0,-0.148438 -0.121094,-0.269532 -0.285157,-0.269532 l -3.027343,0 0,-2.757812 3.296874,0 c 0.175782,0 0.289063,-0.136719 0.289063,-0.300781 l 0,-0.445313 c 0,-0.164062 -0.140625,-0.273437 -0.289063,-0.273437 l -4.109374,0 c -0.148438,0 -0.28125,0.109375 -0.28125,0.273437 l 0,8.515625 c 0,0.152344 0.132812,0.273438 0.28125,0.273438 l 4.109374,0 c 0.148438,0 0.289063,-0.121094 0.289063,-0.273438 m -6.996094,0 0,-8.515625 c 0,-0.164062 -0.132812,-0.273437 -0.285156,-0.273437 l -0.511719,0 c -0.148437,0 -0.285156,0.109375 -0.285156,0.273437 l 0,3.503906 -3.421875,0 0,-3.503906 c 0,-0.164062 -0.132813,-0.273437 -0.285156,-0.273437 l -0.511719,0 c -0.148438,0 -0.285156,0.109375 -0.285156,0.273437 l 0,8.515625 c 0,0.152344 0.136718,0.273438 0.285156,0.273438 l 0.511719,0 c 0.152343,0 0.285156,-0.121094 0.285156,-0.273438 l 0,-4.042969 3.421875,0 0,4.042969 c 0,0.152344 0.136719,0.273438 0.285156,0.273438 l 0.511719,0 c 0.152344,0 0.285156,-0.121094 0.285156,-0.273438 M 82.085938,84.828125 81.839844,84.3125 c -0.05078,-0.105469 -0.171875,-0.175781 -0.335938,-0.09766 -0.230468,0.113281 -0.742187,0.261718 -1.109375,0.261718 -1.339843,0 -2.296875,-1.066406 -2.296875,-3.609374 0,-2.476563 0.8125,-3.53125 2.324219,-3.53125 0.417969,0 0.730469,0.109374 1.042969,0.253906 0.160156,0.08203 0.296875,0.03125 0.363281,-0.105469 l 0.21875,-0.417969 c 0.07813,-0.148437 0.02734,-0.3125 -0.109375,-0.394531 -0.472656,-0.285156 -1.027344,-0.347656 -1.554688,-0.347656 -2.070312,0 -3.503906,1.675781 -3.503906,4.527343 0,2.976563 1.257813,4.664063 3.421875,4.664063 0.824219,0 1.3125,-0.1875 1.664063,-0.363281 0.109375,-0.05469 0.191406,-0.175782 0.121094,-0.324219 m -6.726563,-1.90625 c 0,-1.449219 -0.703125,-2.03125 -1.703125,-2.460937 l -0.742188,-0.328126 c -0.757812,-0.324218 -1.394531,-0.644531 -1.394531,-1.441406 0,-0.839844 0.460938,-1.34375 1.570313,-1.34375 0.554687,0 0.945312,0.125 1.390625,0.257813 0.109375,0.02734 0.269531,-0.06641 0.3125,-0.21875 l 0.109375,-0.429688 c 0.03906,-0.148437 -0.04297,-0.3125 -0.160156,-0.351562 -0.410157,-0.132813 -1.097657,-0.28125 -1.652344,-0.28125 -1.757813,0 -2.730469,1.023437 -2.730469,2.40625 0,1.511719 1.023437,2 2.011719,2.417969 l 0.636718,0.269531 c 0.714844,0.3125 1.164063,0.707031 1.164063,1.542969 0,0.90625 -0.554687,1.515624 -1.636719,1.515624 -0.675781,0 -1.328125,-0.21875 -1.8125,-0.394531 -0.1875,-0.06641 -0.3125,0.04297 -0.351562,0.191407 l -0.132813,0.523437 c -0.04297,0.152344 0.01172,0.273437 0.1875,0.339844 0.511719,0.191406 1.351563,0.378906 2.09375,0.378906 1.988281,0 2.839844,-1.230469 2.839844,-2.59375 m -6.5,2.246094 0,-0.300781 c 0,-0.152344 -0.109375,-0.28125 -0.273437,-0.28125 l -0.675782,0 0,-7.332032 0.675782,0 c 0.164062,0 0.273437,-0.132812 0.273437,-0.28125 l 0,-0.300781 c 0,-0.148437 -0.109375,-0.285156 -0.273437,-0.285156 l -2.429688,0 c -0.164062,0 -0.273438,0.136719 -0.273438,0.285156 l 0,0.300781 c 0,0.148438 0.109376,0.28125 0.273438,0.28125 l 0.671875,0 0,7.332032 -0.671875,0 c -0.164062,0 -0.273438,0.128906 -0.273438,0.28125 l 0,0.300781 c 0,0.148437 0.109376,0.28125 0.273438,0.28125 l 2.429688,0 c 0.164062,0 0.273437,-0.132813 0.273437,-0.28125 m -4.589844,0.02344 0,-8.546875 c 0,-0.148437 -0.136719,-0.257812 -0.285156,-0.257812 l -0.476563,0 c -0.144531,0 -0.28125,0.109375 -0.28125,0.257812 l 0,6.019531 c 0,0.660157 0.08203,1.390626 0.160157,1.988282 -0.160157,-0.460938 -0.308594,-1.070313 -0.578125,-1.675782 L 59.992188,76.58203 c -0.05078,-0.125 -0.160157,-0.195312 -0.308594,-0.195312 l -1.027344,0 c -0.164062,0 -0.285156,0.08594 -0.285156,0.257812 l 0,8.546875 c 0,0.136719 0.136718,0.257813 0.285156,0.257813 l 0.472656,0 c 0.148438,0 0.285156,-0.121094 0.285156,-0.257813 l 0,-6.125 c 0,-0.511718 -0.09375,-1.417968 -0.164062,-2 0.164062,0.582032 0.339844,1.203125 0.59375,1.769532 l 2.867188,6.394531 c 0.07031,0.136719 0.191406,0.21875 0.324218,0.21875 l 0.949219,0 c 0.148437,0 0.285156,-0.121094 0.285156,-0.257813 m -8.210937,-0.01563 0,-8.515625 c 0,-0.164062 -0.136719,-0.273437 -0.285156,-0.273437 l -0.515626,0 c -0.148437,0 -0.28125,0.109375 -0.28125,0.273437 l 0,3.503906 -3.421874,0 0,-3.503906 c 0,-0.164062 -0.136719,-0.273437 -0.285157,-0.273437 l -0.511719,0 c -0.148437,0 -0.285156,0.109375 -0.285156,0.273437 l 0,8.515625 c 0,0.152344 0.136719,0.273438 0.285156,0.273438 l 0.511719,0 c 0.148438,0 0.285157,-0.121094 0.285157,-0.273438 l 0,-4.042969 3.421874,0 0,4.042969 c 0,0.152344 0.132813,0.273438 0.28125,0.273438 l 0.515626,0 c 0.148437,0 0.285156,-0.121094 0.285156,-0.273438 M 48.6875,84.828125 48.445312,84.3125 c -0.05469,-0.105469 -0.179687,-0.175781 -0.339843,-0.09766 -0.230469,0.113281 -0.742188,0.261718 -1.109375,0.261718 -1.335938,0 -2.296875,-1.066406 -2.296875,-3.609374 0,-2.476563 0.8125,-3.53125 2.324219,-3.53125 0.421874,0 0.730468,0.109374 1.042968,0.253906 0.160156,0.08203 0.296875,0.03125 0.363282,-0.105469 l 0.21875,-0.417969 c 0.07812,-0.148437 0.02344,-0.3125 -0.109376,-0.394531 -0.472656,-0.285156 -1.027343,-0.347656 -1.554687,-0.347656 -2.070313,0 -3.503906,1.675781 -3.503906,4.527343 0,2.976563 1.257812,4.664063 3.421875,4.664063 0.824218,0 1.3125,-0.1875 1.664062,-0.363281 0.105469,-0.05469 0.1875,-0.175782 0.121094,-0.324219 m -6.640625,0.347656 0,-0.484375 c 0,-0.160156 -0.136719,-0.28125 -0.296875,-0.28125 l -3.289062,0 0,-3.261718 3.03125,0 c 0.160156,0 0.28125,-0.121094 0.28125,-0.296876 l 0,-0.417968 c 0,-0.148438 -0.121094,-0.269532 -0.28125,-0.269532 l -3.03125,0 0,-2.757812 3.300781,0 c 0.175781,0 0.285156,-0.136719 0.285156,-0.300781 l 0,-0.445313 c 0,-0.164062 -0.136719,-0.273437 -0.285156,-0.273437 l -4.109375,0 c -0.148438,0 -0.285156,0.109375 -0.285156,0.273437 l 0,8.515625 c 0,0.152344 0.136718,0.273438 0.285156,0.273438 l 4.109375,0 c 0.148437,0 0.285156,-0.121094 0.285156,-0.273438 m -6.03125,-8.070312 0,-0.445313 c 0,-0.164062 -0.121094,-0.273437 -0.269531,-0.273437 l -5.207032,0 c -0.160156,0 -0.296874,0.109375 -0.296874,0.273437 l 0,0.445313 c 0,0.164062 0.136718,0.273437 0.296874,0.273437 l 2.054688,0 0,7.796875 c 0,0.152344 0.136719,0.273438 0.285156,0.273438 l 0.527344,0 c 0.148438,0 0.285156,-0.121094 0.285156,-0.273438 l 0,-7.796875 2.054688,0 c 0.148437,0 0.269531,-0.109375 0.269531,-0.273437"
         style="fill:#211e1e;fill-opacity:1;fill-rule:nonzero;stroke:none"
         inkscape:connector-curvature="0" />
    </g>
    <path
       style="fill:none;fill-rule:evenodd;stroke:#000000;stroke-width:1;stroke-linecap:butt;stroke-linejoin:miter;stroke-miterlimit:4;stroke-dasharray:none;stroke-opacity:1"
       d="m 253.45487,887.42269 0,89.068"
       id="path4204"
       inkscape:connector-curvature="0" />
    <text
       xml:space="preserve"
       style="font-style:normal;font-variant:normal;font-weight:normal;font-stretch:condensed;font-size:17.5px;line-height:125%;font-family:'Roboto Condensed';-inkscape-font-specification:'Roboto Condensed, Condensed';text-align:start;letter-spacing:0px;word-spacing:0px;writing-mode:lr-tb;text-anchor:start;fill:#000000;fill-opacity:1;stroke:none;stroke-width:1px;stroke-linecap:butt;stroke-linejoin:miter;stroke-opacity:1"
       x="289.77734"
       y="902.75275"
       id="text4486"
       sodipodi:linespacing="125%"><tspan
         sodipodi:role="line"
         id="tspan5302"
         x="289.77734"
         y="902.75275">Fakultät für Elektro- und Informationstechnik</tspan></text>
    <text
       sodipodi:linespacing="150%"
       id="text5292"
       y="928.79681"
       x="289.94946"
       style="font-style:normal;font-variant:normal;font-weight:normal;font-stretch:condensed;font-size:15px;line-height:150%;font-family:'Roboto Condensed';-inkscape-font-specification:'Roboto Condensed, Condensed';text-align:start;letter-spacing:0px;word-spacing:0px;writing-mode:lr-tb;text-anchor:start;fill:#000000;fill-opacity:1;stroke:none;stroke-width:1px;stroke-linecap:butt;stroke-linejoin:miter;stroke-opacity:1"
       xml:space="preserve"><tspan
         sodipodi:role="line"
         id="tspan5298"
         x="289.94946"
         y="928.79681">Institut für Informationstechnik</tspan><tspan
         sodipodi:role="line"
         id="tspan5300"
         x="289.94946"
         y="951.29681">Professur Schaltkreis- und Systementwurf</tspan></text>
  </g>
</svg>
